<svg xmlns="http://www.w3.org/2000/svg" viewBox="0 0 512 512" width="512" height="512">
  <rect width="512" height="512" rx="96" fill="#070e1c"/>
  <defs>
    <linearGradient id="g1" x1="90" y1="36" x2="422" y2="494" gradientUnits="userSpaceOnUse">
      <stop offset="0%" stop-color="#34d399"/>
      <stop offset="100%" stop-color="#047857"/>
    </linearGradient>
    <filter id="glow">
      <feDropShadow dx="0" dy="4" stdDeviation="12" flood-color="#10b981" flood-opacity=".6"/>
    </filter>
  </defs>
  <path d="M256 44L418 124V291C418 391 344 460 256 484C168 460 94 391 94 291V124Z" fill="url(#g1)" filter="url(#glow)"/>
  <path d="M256 80L388 148V291C388 369 326 430 256 449C186 430 124 369 124 291V148Z" fill="rgba(255,255,255,.07)"/>
  <rect x="156" y="316" width="46" height="92" rx="14" fill="white" opacity=".95"/>
  <rect x="224" y="260" width="46" height="148" rx="14" fill="white" opacity=".95"/>
  <rect x="292" y="196" width="46" height="212" rx="14" fill="white" opacity=".95"/>
  <polyline points="156,342 247,274 315,210" stroke="rgba(255,255,255,.55)" stroke-width="18" stroke-linecap="round" stroke-linejoin="round" fill="none"/>
  <polygon points="315,168 370,232 284,244" fill="rgba(255,255,255,.8)"/>
</svg>
